# xmcd
#
# Track frame offsets:
# 180
# 11756
# 22496
# 41109
# 54977
# 65030
# 73932
# 88767
# 99476
# 111534
# 126483
# 143876
#
# Disc length: 2050 seconds
#
#
# Revision: 0
# Processed by: cddbd v1.4PL0 Copyright (c) Steve Scherf et al.
# Submitted via: FreeRIP 2.00 
#
DISCID=c008000c
DTITLE=Childish, Billy and Dan Melchior - Devil in the Flesh
DYEAR=1900
DGENRE=indie
TTITLE0=Trouble No More
TTITLE1=Length of Pipe
TTITLE2=Bottom of the Sea
TTITLE3=Deep Down in my Heart
TTITLE4=Two Men
TTITLE5=Heart in Hand
TTITLE6=I Feel So Bad
TTITLE7=I'm Hurtin'
TTITLE8=Just to Be with You
TTITLE9=Honey Bee
TTITLE10=Gave Myself Away
TTITLE11=Devil in the Flesh
EXTD=
EXTT0=
EXTT1=
EXTT2=
EXTT3=
EXTT4=
EXTT5=
EXTT6=
EXTT7=
EXTT8=
EXTT9=
EXTT10=
EXTT11=
PLAYORDER=
